PathFileType	4	(X/Y/Z)	C:/Users/opensim2020/Desktop/walking_exp_matlab/subject03_walking07_straight_04.trc																																																																																																																																								
DataRate	CameraRate	NumFrames	NumMarkers	Units	OrigDataRate	OrigDataStartFrame	OrigNumFrames																																																																																																																																				
100	100	6	46	mm	100	3190	265																																																																																																																																				
Frame#	Time	LFHD			RFHD			LBHD			RBHD			C7			T10			CLAV			STRN			RBAK			LSHO			LUPA			LELB			LFRM			LWRA			LWRB			LFIN			RSHO			RUPA			RELB			RFRM			RWRA			RWRB			RFIN			LASI			RASI			LPSI			RPSI			LTHI			LKNE			LTIB			LANK			LHEE			LTOE			RTHI			RKNE			RTIB			RANK			RHEE			RTOE			*39			*40			*41			*42			*43			*44			*45		
		X1	Y1	Z1	X2	Y2	Z2	X3	Y3	Z3	X4	Y4	Z4	X5	Y5	Z5	X6	Y6	Z6	X7	Y7	Z7	X8	Y8	Z8	X9	Y9	Z9	X10	Y10	Z10	X11	Y11	Z11	X12	Y12	Z12	X13	Y13	Z13	X14	Y14	Z14	X15	Y15	Z15	X16	Y16	Z16	X17	Y17	Z17	X18	Y18	Z18	X19	Y19	Z19	X20	Y20	Z20	X21	Y21	Z21	X22	Y22	Z22	X23	Y23	Z23	X24	Y24	Z24	X25	Y25	Z25	X26	Y26	Z26	X27	Y27	Z27	X28	Y28	Z28	X29	Y29	Z29	X30	Y30	Z30	X31	Y31	Z31	X32	Y32	Z32	X33	Y33	Z33	X34	Y34	Z34	X35	Y35	Z35	X36	Y36	Z36	X37	Y37	Z37	X38	Y38	Z38	X39	Y39	Z39	X40	Y40	Z40	X41	Y41	Z41	X42	Y42	Z42	X43	Y43	Z43	X44	Y44	Z44	X45	Y45	Z45	X46	Y46	Z46
																																																																																																																																											
232	2.31	1101.23743	1594.76379	930.02686	1103.92761	1605.78711	1063.22717	972.91992	1551.03076	941.1994	981.0506	1561.67139	1070.85583	945.50439	1394.56616	1004.62	919.97656	1078.62085	1007.98505	1067.51428	1318.49646	1004.92334	1114.29858	1155.41736	1004.76593	896.56281	1219.58167	1105.3656	1019.76654	1350.69287	848.04974	992.48798	1151.42126	781.21265	984.05432	1028.62817	770.74854	991.95068	898.08038	768.97565	994.99518	778.27161	797.4798	969.2915	787.24872	748.0719	973.74756	702.7301	755.69672	1023.91443	1346.88562	1165.08276	1048.79041	1132.76147	1252.8418	1085.55835	1028.75842	1273.16504	1151.14771	909.93793	1272.19397	1216.16614	837.74438	1233.20166	1189.33386	817.33221	1275.32495	1241.40027	765.63696	1264.95715	1100.27527	918.60754	899.74432	1084.78198	920.89636	1138.52942	935.21765	934.91064	936.85986	927.40741	949.33356	1085.93164	1103.93445	617.1925	852.22375	1168.94055	454.828	898.35297	1179.24023	263.35733	898.047	1240.95349	61.47482	931.42517	1215.81116	24.13876	975.89117	1394.59851	48.0593	930.41449	982.91052	634.6178	1178.2085	957.33417	454.4855	1148.40833	850.89282	290.40933	1152.70215	749.32886	96.85868	1107.03223	696.77948	78.08746	1056.66772	876.30731	28.90436	1091.68494	1019.79718	1658.2262	982.35303	NaN	NaN	NaN	NaN	NaN	NaN	NaN	NaN	NaN	NaN	NaN	NaN	NaN	NaN	NaN	NaN	NaN	NaN
233	2.32	1110.01099	1595.22632	928.38495	1112.08069	1606.38928	1061.26013	981.74286	1550.82263	939.60156	989.74817	1561.55127	1069.08325	954.63	1394.29443	1002.43359	931.24237	1078.06543	1005.53082	1077.19531	1318.88855	1003.2113	1124.7793	1156.10425	1003.44409	906.16473	1219.16602	1102.85852	1029.74756	1350.77673	846.1673	1002.84259	1151.19446	779.84637	994.74274	1028.47961	769.69769	1002.17084	897.74054	768.38184	1004.62036	778.05487	797.05206	979.42078	786.90961	747.5495	983.13953	702.35712	755.63489	1033.04248	1346.8269	1163.36011	1057.42859	1132.33862	1250.64294	1093.86035	1028.13855	1270.92957	1158.84692	908.90442	1270.11157	1223.51282	836.17017	1231.37512	1196.4856	816.06281	1273.38782	1248.02478	763.80829	1263.14844	1112.00317	918.91345	898.50085	1095.40112	920.4317	1137.32312	946.88977	935.44312	934.65936	938.18951	949.22906	1083.85632	1115.10217	618.19049	851.42413	1176.03711	454.13687	897.61371	1185.77979	263.19089	897.6084	1246.02063	61.21186	929.73425	1218.16821	25.83659	974.34863	1398.59558	40.901	931.03668	992.43878	634.32629	1177.27808	966.50427	454.1954	1148.04895	857.42255	291.54593	1151.97339	751.66522	100.58855	1107.39221	698.87439	82.98502	1056.90527	876.74213	28.86332	1091.82813	1028.73206	1659.39832	977.93982	NaN	NaN	NaN	NaN	NaN	NaN	NaN	NaN	NaN	NaN	NaN	NaN	NaN	NaN	NaN	NaN	NaN	NaN
234	2.33	1118.802	1595.93909	926.69489	1120.58179	1607.25684	1059.52917	990.91833	1551.01025	937.4375	998.43756	1561.96655	1067.24939	963.56653	1394.59973	999.91394	941.94666	1078.02063	1003.44012	1086.677	1319.6405	1001.49609	1135.2356	1157.11816	1002.10327	915.78229	1218.79028	1100.28052	1039.65906	1351.03479	844.16602	1013.51636	1151.22876	778.22083	1005.27008	1028.10254	768.43188	1012.78912	897.54608	767.8678	1014.52954	777.88147	797.20514	990.01685	786.64496	747.14905	992.99652	702.08813	755.73602	1041.96729	1346.92969	1161.48071	1066.12866	1132.22534	1248.69995	1102.04968	1027.61389	1268.66394	1166.30078	907.91565	1267.97668	1230.49731	834.66638	1229.43408	1203.297	814.92102	1271.60559	1254.39502	762.15869	1261.48938	1123.86475	919.66266	897.34857	1105.86292	920.08563	1136.0011	958.6618	936.28143	932.46637	949.22101	949.36285	1081.83508	1125.93298	619.62946	850.6637	1183.2594	454.47653	896.18195	1192.79944	263.64819	895.04883	1250.59399	60.62941	928.49939	1220.77942	27.56781	972.29657	1402.95959	36.58799	931.5271	1002.57129	634.22888	1176.2262	976.5791	454.03955	1147.74207	863.60486	293.90161	1151.39612	754.52094	104.72834	1107.73853	701.53436	88.52304	1056.8219	877.22754	28.80385	1091.93164	1037.18457	1658.72485	975.74402	NaN	NaN	NaN	NaN	NaN	NaN	NaN	NaN	NaN	NaN	NaN	NaN	NaN	NaN	NaN	NaN	NaN	NaN
235	2.34	1127.62366	1596.85205	924.99762	1129.13245	1608.24255	1057.83398	999.84119	1551.69202	935.5545	1007.05304	1562.62622	1065.22949	973.1488	1394.93518	998.20575	952.78937	1078.14819	1001.19281	1096.19397	1320.61865	999.78546	1145.68469	1158.39929	1000.67566	925.26428	1218.7771	1097.74353	1049.6156	1351.5072	842.2254	1024.16528	1151.39465	776.78229	1016.43317	1028.25281	767.37872	1023.66992	897.58813	767.34418	1024.97021	778.10156	796.98907	1001.11951	786.6228	746.80518	1003.47589	702.10339	755.86261	1050.78772	1347.37524	1159.78589	1074.40173	1132.13196	1246.03613	1110.17249	1027.27161	1266.28955	1173.46375	907.00861	1265.68848	1237.23315	833.17535	1227.40222	1209.59314	813.71973	1269.51062	1260.22729	760.40564	1259.53113	1135.70935	920.90918	896.29657	1116.34863	920.04865	1134.625	970.16559	937.72931	930.49036	960.22656	949.67676	1079.87073	1136.06372	621.10931	850.03644	1190.64221	454.75275	894.69745	1199.46399	264.00641	893.36859	1254.24646	60.9157	927.79553	1222.22046	28.59693	971.80133	1406.62634	34.16476	930.38428	1013.271	634.22064	1175.17688	987.64539	453.98322	1147.67566	871.02899	296.14807	1151.1217	757.61877	109.52954	1107.77185	704.91144	94.78062	1056.46777	877.77808	28.7731	1092.03162	1045.03052	1659.45142	976.59363	NaN	NaN	NaN	NaN	NaN	NaN	NaN	NaN	NaN	NaN	NaN	NaN	NaN	NaN	NaN	NaN	NaN	NaN
236	2.35	1136.46899	1598.01257	923.29462	1137.68665	1609.44861	1056.14722	1008.72186	1552.48596	933.6283	1015.65057	1563.53625	1063.29846	982.104	1395.79077	995.52838	963.64758	1078.57043	998.94287	1105.62073	1321.83081	998.05585	1156.10339	1160.02002	999.19043	934.67358	1218.90576	1095.03442	1059.57837	1352.24585	840.2608	1035.19226	1151.92944	775.21143	1027.74426	1028.58838	766.21741	1034.92773	897.88544	766.89813	1035.82068	778.55115	797.05914	1012.6936	786.86816	746.46301	1014.41425	702.31732	756.16846	1059.43347	1348.04773	1157.94836	1082.79541	1132.42944	1243.66479	1118.19397	1027.23035	1263.75427	1180.39526	906.29633	1263.30103	1243.73376	831.90442	1225.42249	1215.59802	812.69226	1267.37463	1265.59412	758.72546	1257.44165	1147.30615	922.664	895.19678	1127.31799	920.62482	1133.23486	981.51208	939.50537	928.37909	970.98871	950.11438	1078.02295	1145.73779	622.93884	849.15314	1198.51538	455.49023	893.46454	1205.4718	264.37115	892.25031	1255.88733	60.12056	929.8772	1222.7655	29.23402	972.5061	1408.37732	32.71918	930.49677	1024.47839	634.23761	1174.2262	999.49384	453.99484	1147.99902	879.01917	298.72745	1150.9541	761.74622	114.58791	1107.73035	709.06342	101.80479	1056.01721	878.40564	28.80834	1092.07568	1054.07825	1661.44165	972.10608	NaN	NaN	NaN	NaN	NaN	NaN	NaN	NaN	NaN	NaN	NaN	NaN	NaN	NaN	NaN	NaN	NaN	NaN
237	2.36	1145.23926	1599.46765	921.57684	1146.22424	1610.91846	1054.44836	1017.5694	1553.66028	931.6814	1024.21411	1564.73425	1061.36731	991.42236	1396.74475	993.85413	974.37854	1079.37756	996.87695	1114.94897	1323.38062	996.30078	1166.33032	1161.9054	997.65607	944.03003	1219.37878	1092.32715	1069.49487	1353.38232	838.24377	1046.09729	1152.61304	773.88879	1038.96619	1029.20325	765.00598	1046.62354	898.53705	766.47571	1046.92944	779.14087	797.49854	1024.8031	787.41498	746.15179	1025.99182	702.8363	756.42834	1067.98193	1349.08215	1156.07458	1091.13477	1133.05615	1241.0647	1126.03333	1027.45667	1261.20386	1187.08972	905.87335	1260.82556	1249.42688	830.44257	1222.97168	1221.14783	811.89185	1265.00317	1270.67603	757.37543	1255.5033	1158.46497	924.72864	894.05701	1137.8573	921.2829	1131.50867	992.43048	941.78125	926.54791	981.64484	950.86047	1076.38574	1154.93677	625.33429	847.54553	1207.35352	457.06393	892.36932	1210.84583	265.2579	891.22217	1258.02698	59.66888	932.17725	1222.93323	29.33687	972.59082	1409.50073	31.91964	932.36127	1036.36743	634.26459	1173.31958	1012.65491	453.95514	1148.17957	888.14893	301.59412	1151.19226	766.62305	120.45995	1107.72192	714.25104	109.69048	1055.3623	879.1817	28.93425	1092.05493	1062.13269	1661.58008	972.82336	NaN	NaN	NaN	NaN	NaN	NaN	NaN	NaN	NaN	NaN	NaN	NaN	NaN	NaN	NaN	NaN	NaN	NaN
